HIERARCHY
ROOT newVegas:Hips
{
	OFFSET 0.000000 96.479958 0.000000
	CHANNELS 6 Xposition Yposition Zposition Xrotation Yrotation Zrotation
	JOINT newVegas:Pelvis
	{
		OFFSET 0.000000 0.000000 0.000000
		CHANNELS 3 Xrotation Yrotation Zrotation
		JOINT newVegas:LeftUpLeg
		{
			OFFSET 18.735201 -5.666702 -4.541200
			CHANNELS 3 Xrotation Yrotation Zrotation
			JOINT newVegas:LeftLeg
			{
				OFFSET -0.021200 -31.938179 0.493100
				CHANNELS 3 Xrotation Yrotation Zrotation
				JOINT newVegas:LeftFoot
				{
					OFFSET 0.021200 -31.938179 -4.336299
					CHANNELS 3 Xrotation Yrotation Zrotation
					JOINT newVegas:LeftToeBase
					{
						OFFSET 0.943001 -26.722000 15.023500
						CHANNELS 3 Xrotation Yrotation Zrotation
						End Site
						{
							OFFSET 0.000000 30.670183 0.000000
						}
					}
				}
				JOINT newVegas:Left_PantLeg
				{
					OFFSET 0.663870 -9.044666 -1.108900
					CHANNELS 3 Xrotation Yrotation Zrotation
					End Site
					{
						OFFSET 1.415995 20.635357 0.000000
					}
				}
			}
		}
		JOINT newVegas:RightUpLeg
		{
			OFFSET -18.735201 -5.666702 -4.541200
			CHANNELS 3 Xrotation Yrotation Zrotation
			JOINT newVegas:RightLeg
			{
				OFFSET 0.018946 -31.938133 0.493100
				CHANNELS 3 Xrotation Yrotation Zrotation
				JOINT newVegas:RightFoot
				{
					OFFSET -0.018946 -31.938126 -4.336299
					CHANNELS 3 Xrotation Yrotation Zrotation
					JOINT newVegas:RightToeBase
					{
						OFFSET -0.943001 -26.722004 15.023500
						CHANNELS 3 Xrotation Yrotation Zrotation
						End Site
						{
							OFFSET 0.000000 30.670187 0.000000
						}
					}
				}
				JOINT newVegas:Right_PantLeg
				{
					OFFSET -0.661674 -9.044716 -1.108900
					CHANNELS 3 Xrotation Yrotation Zrotation
					End Site
					{
						OFFSET -1.415958 20.635269 0.000000
					}
				}
			}
		}
	}
	JOINT newVegas:Spine
	{
		OFFSET 0.000000 10.199997 -0.299500
		CHANNELS 3 Xrotation Yrotation Zrotation
		JOINT newVegas:Spine1
		{
			OFFSET 0.000000 11.900002 -1.516600
			CHANNELS 3 Xrotation Yrotation Zrotation
			JOINT newVegas:Spine2
			{
				OFFSET 0.000000 13.600006 -2.842500
				CHANNELS 3 Xrotation Yrotation Zrotation
				JOINT newVegas:Neck
				{
					OFFSET 0.000000 9.624100 -2.890100
					CHANNELS 3 Xrotation Yrotation Zrotation
					JOINT newVegas:Head
					{
						OFFSET 0.000000 14.068802 -1.351900
						CHANNELS 3 Xrotation Yrotation Zrotation
						JOINT newVegas:Hair_Back
						{
							OFFSET 0.000000 3.231903 -17.524799
							CHANNELS 3 Xrotation Yrotation Zrotation
							End Site
							{
								OFFSET 0.000000 19.849884 0.000000
							}
						}
						JOINT newVegas:Hair_Front
						{
							OFFSET 0.000000 31.260406 4.573800
							CHANNELS 3 Xrotation Yrotation Zrotation
							JOINT newVegas:Hair_Front1
							{
								OFFSET 0.000000 2.284103 11.993300
								CHANNELS 3 Xrotation Yrotation Zrotation
								JOINT newVegas:Hair_Front2
								{
									OFFSET 0.000000 2.284103 11.993300
									CHANNELS 3 Xrotation Yrotation Zrotation
									End Site
									{
										OFFSET 0.000000 12.208862 0.000000
									}
								}
							}
						}
						JOINT newVegas:Jowel
						{
							OFFSET 0.000000 -7.458206 6.864100
							CHANNELS 3 Xrotation Yrotation Zrotation
							End Site
							{
								OFFSET 0.000000 19.849884 0.000000
							}
						}
					}
				}
				JOINT newVegas:LeftShoulder
				{
					OFFSET 15.263000 10.923401 -0.547700
					CHANNELS 3 Xrotation Yrotation Zrotation
					JOINT newVegas:LeftArm
					{
						OFFSET 25.438599 -2.830597 -13.032500
						CHANNELS 3 Xrotation Yrotation Zrotation
						JOINT newVegas:LeftForeArm
						{
							OFFSET 29.960503 0.000000 0.000000
							CHANNELS 3 Xrotation Yrotation Zrotation
							JOINT newVegas:LeftHand
							{
								OFFSET 27.849251 0.000000 0.000000
								CHANNELS 3 Xrotation Yrotation Zrotation
								JOINT newVegas:LeftHandThumb1
								{
									OFFSET 4.487587 -3.305161 6.305391
									CHANNELS 3 Xrotation Yrotation Zrotation
									JOINT newVegas:LeftHandThumb2
									{
										OFFSET 5.480453 -3.164139 3.164143
										CHANNELS 3 Xrotation Yrotation Zrotation
										JOINT newVegas:LeftHandThumb3
										{
											OFFSET 5.159721 -2.978973 2.978967
											CHANNELS 3 Xrotation Yrotation Zrotation
											End Site
											{
												OFFSET 2.494507 5.926697 1.738678
											}
										}
									}
								}
								JOINT newVegas:LeftHandIndex1
								{
									OFFSET 18.578728 -0.527832 5.208049
									CHANNELS 3 Xrotation Yrotation Zrotation
									JOINT newVegas:LeftHandIndex2
									{
										OFFSET 3.192009 0.000000 0.000000
										CHANNELS 3 Xrotation Yrotation Zrotation
										JOINT newVegas:LeftHandIndex3
										{
											OFFSET 3.835129 0.000000 0.000000
											CHANNELS 3 Xrotation Yrotation Zrotation
											End Site
											{
												OFFSET -0.034599 3.816971 0.371180
											}
										}
									}
								}
								JOINT newVegas:LeftHandMiddle1
								{
									OFFSET 18.476105 0.000000 0.000000
									CHANNELS 3 Xrotation Yrotation Zrotation
									JOINT newVegas:LeftHandMiddle2
									{
										OFFSET 3.324875 0.000000 0.000000
										CHANNELS 3 Xrotation Yrotation Zrotation
										JOINT newVegas:LeftHandMiddle3
										{
											OFFSET 4.596550 0.000000 0.000000
											CHANNELS 3 Xrotation Yrotation Zrotation
											End Site
											{
												OFFSET 0.057701 4.578827 0.399218
											}
										}
									}
								}
								JOINT newVegas:LeftHandRing1
								{
									OFFSET 17.732719 0.121887 -4.201567
									CHANNELS 3 Xrotation Yrotation Zrotation
									JOINT newVegas:LeftHandRing2
									{
										OFFSET 2.733170 0.000000 0.000000
										CHANNELS 3 Xrotation Yrotation Zrotation
										JOINT newVegas:LeftHandRing3
										{
											OFFSET 3.178268 0.000000 0.000000
											CHANNELS 3 Xrotation Yrotation Zrotation
											End Site
											{
												OFFSET 0.119102 3.170624 0.185394
											}
										}
									}
								}
								JOINT newVegas:LeftHandPinky1
								{
									OFFSET 15.989624 -0.606689 -7.535461
									CHANNELS 3 Xrotation Yrotation Zrotation
									JOINT newVegas:LeftHandPinky2
									{
										OFFSET 2.538986 0.000000 0.000000
										CHANNELS 3 Xrotation Yrotation Zrotation
										JOINT newVegas:LeftHandPinky3
										{
											OFFSET 2.593102 0.000000 0.000000
											CHANNELS 3 Xrotation Yrotation Zrotation
											End Site
											{
												OFFSET -0.150902 2.584198 0.152708
											}
										}
									}
								}
							}
							JOINT newVegas:Left_Sleeve
							{
								OFFSET 0.267448 -0.649796 0.577675
								CHANNELS 3 Xrotation Yrotation Zrotation
								End Site
								{
									OFFSET 0.000000 15.991241 0.000000
								}
							}
							JOINT newVegas:Left_CapeC
							{
								OFFSET 15.715958 -8.608795 -6.935905
								CHANNELS 3 Xrotation Yrotation Zrotation
								JOINT newVegas:Left_CapeC1
								{
									OFFSET 0.000000 -8.688499 0.000000
									CHANNELS 3 Xrotation Yrotation Zrotation
									End Site
									{
										OFFSET 0.000000 8.688499 0.000000
									}
								}
							}
						}
						JOINT newVegas:Left_CapeB
						{
							OFFSET 26.118385 -8.608795 -7.079235
							CHANNELS 3 Xrotation Yrotation Zrotation
							JOINT newVegas:Left_CapeB1
							{
								OFFSET 0.000000 -8.688499 0.000000
								CHANNELS 3 Xrotation Yrotation Zrotation
								End Site
								{
									OFFSET 0.000000 8.688499 0.000000
								}
							}
						}
						JOINT newVegas:Left_CapeA
						{
							OFFSET 5.115639 -8.608795 -10.395809
							CHANNELS 3 Xrotation Yrotation Zrotation
							JOINT newVegas:Left_CapeA1
							{
								OFFSET 0.000000 -8.688499 0.000000
								CHANNELS 3 Xrotation Yrotation Zrotation
								End Site
								{
									OFFSET 0.000000 8.688499 0.000000
								}
							}
						}
					}
				}
				JOINT newVegas:RightShoulder
				{
					OFFSET -15.263000 10.923401 -0.547700
					CHANNELS 3 Xrotation Yrotation Zrotation
					JOINT newVegas:RightArm
					{
						OFFSET -25.438599 -2.830597 -13.032500
						CHANNELS 3 Xrotation Yrotation Zrotation
						JOINT newVegas:RightForeArm
						{
							OFFSET -29.960503 0.000000 0.000000
							CHANNELS 3 Xrotation Yrotation Zrotation
							JOINT newVegas:RightHand
							{
								OFFSET -27.849251 0.000000 0.000000
								CHANNELS 3 Xrotation Yrotation Zrotation
								JOINT newVegas:RightHandThumb1
								{
									OFFSET -4.487587 -3.305161 6.305391
									CHANNELS 3 Xrotation Yrotation Zrotation
									JOINT newVegas:RightHandThumb2
									{
										OFFSET -5.480453 -3.164139 3.164143
										CHANNELS 3 Xrotation Yrotation Zrotation
										JOINT newVegas:RightHandThumb3
										{
											OFFSET -5.159721 -2.978973 2.978967
											CHANNELS 3 Xrotation Yrotation Zrotation
											End Site
											{
												OFFSET -2.494507 5.926697 1.738678
											}
										}
									}
								}
								JOINT newVegas:RightHandIndex1
								{
									OFFSET -18.578728 -0.527832 5.208049
									CHANNELS 3 Xrotation Yrotation Zrotation
									JOINT newVegas:RightHandIndex2
									{
										OFFSET -3.192009 0.000000 0.000000
										CHANNELS 3 Xrotation Yrotation Zrotation
										JOINT newVegas:RightHandIndex3
										{
											OFFSET -3.835129 0.000000 0.000000
											CHANNELS 3 Xrotation Yrotation Zrotation
											End Site
											{
												OFFSET 0.034599 3.816971 0.371180
											}
										}
									}
								}
								JOINT newVegas:RightHandMiddle1
								{
									OFFSET -18.476105 0.000000 0.000000
									CHANNELS 3 Xrotation Yrotation Zrotation
									JOINT newVegas:RightHandMiddle2
									{
										OFFSET -3.324875 0.000000 0.000000
										CHANNELS 3 Xrotation Yrotation Zrotation
										JOINT newVegas:RightHandMiddle3
										{
											OFFSET -4.596550 0.000000 0.000000
											CHANNELS 3 Xrotation Yrotation Zrotation
											End Site
											{
												OFFSET -0.057701 4.578827 0.399218
											}
										}
									}
								}
								JOINT newVegas:RightHandRing1
								{
									OFFSET -17.732719 0.121887 -4.201567
									CHANNELS 3 Xrotation Yrotation Zrotation
									JOINT newVegas:RightHandRing2
									{
										OFFSET -2.733170 0.000000 0.000000
										CHANNELS 3 Xrotation Yrotation Zrotation
										JOINT newVegas:RightHandRing3
										{
											OFFSET -3.178268 0.000000 0.000000
											CHANNELS 3 Xrotation Yrotation Zrotation
											End Site
											{
												OFFSET -0.119102 3.170624 0.185394
											}
										}
									}
								}
								JOINT newVegas:RightHandPinky1
								{
									OFFSET -15.989624 -0.606689 -7.535461
									CHANNELS 3 Xrotation Yrotation Zrotation
									JOINT newVegas:RightHandPinky2
									{
										OFFSET -2.538986 0.000000 0.000000
										CHANNELS 3 Xrotation Yrotation Zrotation
										JOINT newVegas:RightHandPinky3
										{
											OFFSET -2.593102 0.000000 0.000000
											CHANNELS 3 Xrotation Yrotation Zrotation
											End Site
											{
												OFFSET 0.150902 2.584198 0.152708
											}
										}
									}
								}
							}
							JOINT newVegas:Right_CapeC
							{
								OFFSET -15.715958 -8.608795 -6.935905
								CHANNELS 3 Xrotation Yrotation Zrotation
								JOINT newVegas:Right_CapeC1
								{
									OFFSET 0.000000 -8.688499 0.000000
									CHANNELS 3 Xrotation Yrotation Zrotation
									End Site
									{
										OFFSET 0.000000 8.688499 0.000000
									}
								}
							}
							JOINT newVegas:Right_Sleeve
							{
								OFFSET -0.267448 -0.649994 0.577675
								CHANNELS 3 Xrotation Yrotation Zrotation
								End Site
								{
									OFFSET 0.000000 15.991302 0.000000
								}
							}
						}
						JOINT newVegas:Right_CapeA
						{
							OFFSET -5.115540 -8.608795 -10.395824
							CHANNELS 3 Xrotation Yrotation Zrotation
							JOINT newVegas:Right_CapeA1
							{
								OFFSET 0.000000 -8.688499 0.000000
								CHANNELS 3 Xrotation Yrotation Zrotation
								End Site
								{
									OFFSET 0.000000 8.688499 0.000000
								}
							}
						}
						JOINT newVegas:Right_CapeB
						{
							OFFSET -26.118187 -8.608795 -7.079266
							CHANNELS 3 Xrotation Yrotation Zrotation
							JOINT newVegas:Right_CapeB1
							{
								OFFSET 0.000000 -8.688499 0.000000
								CHANNELS 3 Xrotation Yrotation Zrotation
								End Site
								{
									OFFSET 0.000000 8.688499 0.000000
								}
							}
						}
					}
				}
				JOINT newVegas:Left_Collar
				{
					OFFSET 18.625099 8.655502 8.828100
					CHANNELS 3 Xrotation Yrotation Zrotation
					JOINT newVegas:Left_Collar1
					{
						OFFSET 14.783401 10.540405 -1.259500
						CHANNELS 3 Xrotation Yrotation Zrotation
						End Site
						{
							OFFSET 0.000000 18.199875 0.000000
						}
					}
				}
				JOINT newVegas:Collar_Back
				{
					OFFSET 0.000000 15.630707 -20.132601
					CHANNELS 3 Xrotation Yrotation Zrotation
					End Site
					{
						OFFSET 0.000000 22.523010 0.000000
					}
				}
				JOINT newVegas:Left_Peck
				{
					OFFSET 17.239599 -5.132599 25.482599
					CHANNELS 3 Xrotation Yrotation Zrotation
					End Site
					{
						OFFSET 0.000000 22.523010 0.000000
					}
				}
				JOINT newVegas:Right_Peck
				{
					OFFSET -17.239599 -5.132202 25.482599
					CHANNELS 3 Xrotation Yrotation Zrotation
					End Site
					{
						OFFSET 0.000000 22.523010 0.000000
					}
				}
				JOINT newVegas:Right_Collar
				{
					OFFSET -18.625099 8.655792 8.828100
					CHANNELS 3 Xrotation Yrotation Zrotation
					JOINT newVegas:Right_Collar1
					{
						OFFSET -14.783401 10.539993 -1.259500
						CHANNELS 3 Xrotation Yrotation Zrotation
						End Site
						{
							OFFSET 0.000000 18.199631 0.000000
						}
					}
				}
			}
		}
		JOINT newVegas:Belly
		{
			OFFSET 0.000000 -6.540398 9.014299
			CHANNELS 3 Xrotation Yrotation Zrotation
			End Site
			{
				OFFSET 0.000000 11.566666 0.000000
			}
		}
	}
	JOINT newVegas:ElvisFacialAnim_Joint
	{
		OFFSET 1.000000 -95.330101 -8.825800
		CHANNELS 3 Xrotation Yrotation Zrotation
		End Site
		{
			OFFSET 0.000000 35.315800 0.000000
		}
	}
}
MOTION
Frames: 4
Frame Time: 0.033333
-12.149217 92.305016 -2.977239 -5.592502 -56.980846 -10.364714 0.000000 0.000001 -0.000000 -1.485994 16.362903 25.935661 9.783991 33.273468 11.710809 5.756426 -0.013632 -31.039084 -0.000000 0.000000 -0.000000 -0.000000 0.000000 -0.000001 -17.834575 24.423455 3.397564 24.372185 -2.727732 10.552098 -6.643731 -0.533012 -0.648765 -0.000000 0.000002 -0.000000 0.000000 -0.000003 0.000000 5.353286 -7.606619 4.298946 2.469902 -6.473428 3.015948 2.423947 -6.468400 3.069795 -0.789063 -3.613645 1.372856 -0.789064 -3.613639 1.372854 0.000000 -0.000000 -0.000000 -0.789062 -3.613641 1.372855 -0.789060 -3.613622 1.372855 0.000000 0.000000 0.000001 0.000000 -0.000000 -0.000000 4.266239 -16.042415 7.599716 -4.575310 31.245636 -80.003795 0.000107 -6.590745 -8.142616 15.456119 -3.802268 8.711876 -15.339210 2.348374 4.985152 25.744778 26.950818 5.541481 0.000001 -0.000002 -0.000005 -5.846263 10.529010 -11.118483 -0.364608 3.186681 -31.111559 -0.000001 0.000000 -0.000002 1.515410 16.447463 -23.727534 0.007926 0.015455 -42.087841 -0.000001 -0.000001 0.000003 -5.446254 23.586405 -28.981681 -11.456520 0.396634 -59.235881 0.000000 -0.000000 -0.000002 -16.929758 22.182545 -42.753941 0.007285 0.019704 -45.286381 -0.000003 -0.000003 0.000002 -0.000001 0.000000 0.000000 -0.000001 0.000000 0.000000 -0.000001 0.000000 0.000000 0.000001 0.000000 0.000001 0.000001 0.000000 0.000000 0.000001 0.000000 0.000001 0.000001 -0.000000 0.000001 14.312909 -7.120053 8.084092 -2.575375 -23.262226 77.410489 0.000011 45.087776 1.902305 7.651105 -35.885240 16.706959 9.347176 2.810551 -11.364528 16.169054 -43.266004 15.843589 0.000001 0.000000 -0.000000 17.076795 -0.396539 31.924335 -0.204414 -0.284209 112.811571 -0.000000 0.000000 0.000001 9.205467 -5.035875 102.738073 0.014965 -0.019183 61.018513 0.000000 0.000000 -0.000001 5.569133 -8.935195 107.329101 0.547969 -0.005771 41.263707 0.000001 -0.000003 -0.000000 6.511263 -17.148271 98.228010 0.007415 -0.015725 43.845774 -0.000001 0.000002 -0.000002 0.000001 0.000001 0.000002 0.000001 0.000001 0.000001 0.000001 0.000001 0.000002 -0.000002 0.000002 0.000001 -0.000002 0.000002 0.000000 -0.000002 0.000002 0.000001 -0.000002 0.000002 0.000001 -0.000000 0.000001 -0.000000 -0.000000 0.000001 -0.000000 -0.000000 0.000001 -0.000000 -0.000000 0.000001 -0.000000 -0.000000 0.000001 -0.000000 -0.000000 0.000001 -0.000000 -0.000000 0.000001 -0.000000 -0.000000 -0.000001 0.000000 0.000000 0.000001 -0.000000 
-12.177434 92.351318 -2.951159 -5.585426 -56.215117 -10.053712 0.000000 0.000001 -0.000000 -1.529459 16.498093 25.977733 9.493941 32.389044 11.035468 5.937391 -0.046839 -30.469348 -0.000000 0.000000 -0.000000 -0.000000 -0.000001 0.000001 -17.479209 24.275158 3.035755 24.827478 -3.173307 10.623379 -7.123901 -0.515078 -0.680155 0.000000 -0.000002 0.000000 0.000000 0.000001 -0.000000 5.427029 -7.496262 4.332987 2.508208 -6.385455 3.026408 2.464142 -6.380604 3.078641 -0.824094 -3.637055 1.365586 -0.824096 -3.637045 1.365585 -0.000000 0.000000 -0.000000 -0.824164 -3.637039 1.365578 -0.823946 -3.637013 1.365595 -0.000000 0.000000 -0.000001 -0.000000 0.000000 -0.000000 4.245772 -15.192154 7.548241 -4.657369 31.360226 -79.844385 0.000079 -5.466539 -7.944383 16.222403 -5.684988 8.699302 -15.359982 2.223132 4.790041 25.668614 26.807717 5.574862 0.000002 -0.000003 -0.000005 -5.710211 10.610621 -10.693291 -0.391858 3.182751 -30.661870 -0.000001 -0.000000 0.000000 1.543428 16.463143 -23.283171 0.007792 0.015327 -41.635587 -0.000001 -0.000002 0.000002 -5.532104 23.549063 -28.484204 -11.452269 0.306919 -58.793558 -0.000000 0.000001 -0.000001 -16.928585 22.183053 -42.301404 0.007138 0.019549 -44.833990 -0.000001 -0.000003 0.000001 -0.000000 0.000000 0.000001 -0.000000 0.000000 0.000001 -0.000001 0.000000 0.000001 0.000000 -0.000001 0.000001 0.000000 -0.000002 0.000001 0.000000 -0.000001 0.000001 0.000001 -0.000002 0.000001 14.321592 -7.192456 7.796268 -2.792552 -23.212832 77.525871 0.000025 45.083080 1.820142 7.388275 -36.235646 16.313620 9.347174 2.810551 -11.364531 16.169044 -43.266004 15.843589 0.000001 -0.000009 -0.000002 17.076791 -0.396540 31.924335 -0.204414 -0.284208 112.811571 -0.000000 0.000001 -0.000000 9.205466 -5.035875 102.738066 0.014967 -0.019182 61.018513 0.000001 -0.000001 0.000001 5.569135 -8.935195 107.329094 0.547967 -0.005770 41.263707 0.000001 -0.000006 0.000000 6.511264 -17.148274 98.228010 0.007419 -0.015724 43.845764 0.000001 0.000003 0.000002 0.000000 -0.000001 0.000001 0.000000 0.000000 0.000002 0.000000 -0.000001 0.000002 -0.000000 0.000003 0.000000 -0.000000 0.000003 0.000001 -0.000000 0.000003 0.000000 -0.000000 0.000003 0.000001 -0.000000 -0.000001 0.000000 -0.000000 -0.000001 0.000000 -0.000000 -0.000001 0.000000 -0.000000 -0.000001 0.000000 -0.000000 -0.000001 0.000000 -0.000000 -0.000001 0.000000 -0.000000 -0.000001 0.000000 0.000000 -0.000000 0.000000 0.000000 0.000001 -0.000000 
-12.164865 92.405624 -2.909672 -5.545693 -55.348592 -9.688718 -0.000000 0.000001 -0.000000 -1.635294 16.557425 25.946348 9.176211 31.472873 10.412860 6.146134 -0.085478 -29.868486 0.000000 -0.000000 0.000000 -0.000001 0.000000 -0.000000 -17.083401 24.155927 2.624488 25.270821 -3.736379 10.672153 -7.612854 -0.503347 -0.644155 0.000000 -0.000002 0.000000 0.000001 0.000001 -0.000001 5.518115 -7.374646 4.330530 2.550901 -6.286695 3.011662 2.509019 -6.282138 3.062142 -0.871673 -3.658090 1.342866 -0.871676 -3.658065 1.342862 0.000000 0.000000 -0.000000 -0.871604 -3.658089 1.342867 -0.871603 -3.658058 1.342867 0.000000 0.000000 -0.000001 0.000000 0.000000 -0.000000 4.229103 -14.319106 7.491155 -4.927916 31.482336 -79.487481 -0.000063 -4.091429 -7.897162 17.066802 -7.920730 8.777144 -15.375311 2.094712 4.598348 25.592461 26.664324 5.608064 0.000003 0.000001 -0.000001 -5.575783 10.693955 -10.269444 -0.418991 3.178427 -30.213448 -0.000000 0.000001 -0.000000 1.571012 16.479187 -22.839955 0.007684 0.015198 -41.184579 -0.000000 0.000001 -0.000001 -5.617209 23.510642 -27.988426 -11.447311 0.217495 -58.352389 0.000003 -0.000002 -0.000001 -16.927567 22.183435 -41.850116 0.007004 0.019427 -44.382863 -0.000001 -0.000005 -0.000001 0.000000 -0.000001 0.000001 0.000000 -0.000001 0.000001 -0.000001 -0.000001 0.000001 -0.000001 -0.000001 0.000001 -0.000001 0.000000 0.000000 -0.000001 -0.000001 0.000001 -0.000001 -0.000000 0.000001 14.327968 -7.250745 7.520936 -3.099792 -23.047871 77.608038 0.000031 45.012224 1.751582 7.159736 -36.520933 16.036625 9.347177 2.810550 -11.364530 16.169047 -43.266007 15.843587 -0.000001 -0.000004 -0.000003 17.076793 -0.396538 31.924335 -0.204413 -0.284208 112.811571 0.000000 -0.000000 0.000001 9.205465 -5.035876 102.738073 0.014966 -0.019181 61.018513 0.000000 -0.000000 0.000001 5.569134 -8.935195 107.329094 0.547972 -0.005772 41.263710 0.000000 -0.000001 -0.000002 6.511263 -17.148271 98.228010 0.007416 -0.015723 43.845771 0.000000 -0.000000 -0.000002 -0.000000 -0.000002 0.000002 0.000000 -0.000002 0.000001 -0.000000 -0.000002 0.000002 -0.000000 -0.000001 -0.000000 -0.000000 -0.000001 -0.000000 -0.000000 -0.000001 -0.000000 -0.000000 -0.000001 -0.000000 0.000000 -0.000001 0.000000 0.000000 -0.000001 0.000000 0.000000 -0.000001 0.000000 0.000000 -0.000001 0.000000 0.000000 -0.000001 0.000000 0.000000 -0.000001 0.000000 0.000000 -0.000001 0.000000 0.000000 -0.000002 0.000000 -0.000000 0.000001 -0.000000 
-12.119130 92.457703 -2.858917 -5.457296 -54.388209 -9.279116 0.000000 0.000001 -0.000000 -1.888206 16.517475 25.892564 8.972250 30.515202 9.836266 6.331675 -0.118538 -29.264953 -0.000000 -0.000000 -0.000000 -0.000000 0.000000 0.000001 -16.678987 24.057238 2.191328 25.715104 -4.409632 10.717003 -8.112744 -0.497332 -0.556750 0.000000 -0.000001 0.000000 0.000001 -0.000005 0.000000 5.618274 -7.233216 4.297681 2.596693 -6.170513 2.973655 2.557101 -6.166215 3.022515 -0.915599 -3.679035 1.330872 -0.915597 -3.679019 1.330873 0.000000 -0.000001 -0.000000 -0.915601 -3.679009 1.330870 -0.915459 -3.679037 1.330885 -0.000000 -0.000000 -0.000000 0.000000 -0.000001 -0.000000 4.215844 -13.436347 7.416578 -5.264715 31.603804 -78.968441 -0.000274 -2.738225 -8.119315 17.885982 -10.630237 8.810649 -15.385329 1.964384 4.412438 25.517150 26.522087 5.640727 0.000002 0.000000 -0.000001 -5.444298 10.778103 -9.851090 -0.445803 3.173818 -29.770701 -0.000000 -0.000001 0.000001 1.597941 16.495419 -22.402250 0.007576 0.015072 -40.739217 0.000002 0.000001 -0.000002 -5.700652 23.471499 -27.499218 -11.441712 0.129199 -57.916767 0.000001 -0.000002 -0.000003 -16.926681 22.183681 -41.404579 0.006877 0.019285 -43.937429 -0.000001 -0.000005 0.000001 0.000002 0.000000 -0.000000 0.000002 0.000000 -0.000000 0.000001 0.000000 -0.000000 0.000001 -0.000001 -0.000001 0.000001 0.000000 -0.000002 0.000001 -0.000001 -0.000001 -0.000001 0.000000 -0.000001 14.333809 -7.285770 7.275115 -3.517504 -22.815173 77.635830 0.000042 44.861543 1.684330 7.053436 -36.748808 15.943878 9.347176 2.810551 -11.364533 16.169050 -43.266007 15.843590 0.000001 -0.000004 -0.000001 17.076793 -0.396538 31.924335 -0.204413 -0.284208 112.811571 0.000001 0.000000 -0.000000 9.205466 -5.035873 102.738066 0.014965 -0.019182 61.018513 0.000001 -0.000001 0.000000 5.569135 -8.935194 107.329101 0.547965 -0.005772 41.263710 0.000001 -0.000001 -0.000001 6.511262 -17.148271 98.228010 0.007415 -0.015719 43.845771 0.000005 -0.000002 -0.000003 -0.000000 -0.000001 -0.000000 0.000000 0.000000 0.000000 -0.000000 -0.000002 0.000000 0.000000 -0.000002 -0.000000 0.000000 -0.000002 -0.000000 0.000000 -0.000002 -0.000000 0.000000 -0.000002 -0.000000 0.000001 -0.000001 0.000000 0.000001 -0.000001 0.000000 0.000001 -0.000001 0.000000 0.000001 -0.000001 0.000000 0.000001 -0.000001 0.000000 0.000001 -0.000001 0.000000 0.000001 -0.000001 0.000000 0.000000 0.000002 -0.000000 0.000000 0.000001 -0.000000 
